Coordinates
version=1
nRows=16
nColumns=63
inDegrees=yes

Units are S.I. units (second, meters, Newtons, ...)
If the header above contains a line with 'inDegrees', this indicates whether rotational values are in degrees (yes) or radians (no).

endheader
time	pelvis_tilt	pelvis_list	pelvis_rotation	pelvis_tx	pelvis_ty	pelvis_tz	hip_flexion_r	hip_adduction_r	hip_rotation_r	knee_angle_r	knee_angle_r_beta	ankle_angle_r	subtalar_angle_r	mtp_angle_r	hip_flexion_l	hip_adduction_l	hip_rotation_l	knee_angle_l	knee_angle_l_beta	ankle_angle_l	subtalar_angle_l	mtp_angle_l	L5_S1_Flex_Ext	L5_S1_Lat_Bending	L5_S1_axial_rotation	L4_L5_Flex_Ext	L4_L5_Lat_Bending	L4_L5_axial_rotation	L3_L4_Flex_Ext	L3_L4_Lat_Bending	L3_L4_axial_rotation	L2_L3_Flex_Ext	L2_L3_Lat_Bending	L2_L3_axial_rotation	L1_L2_Flex_Ext	L1_L2_Lat_Bending	L1_L2_axial_rotation	L1_T12_Flex_Ext	L1_T12_Lat_Bending	L1_T12_axial_rotation	Abs_r3	Abs_r2	Abs_r1	Abs_t1	Abs_t2	neck_flexion	neck_bending	neck_rotation	arm_flex_r	arm_add_r	arm_rot_r	elbow_flex_r	pro_sup_r	wrist_flex_r	wrist_dev_r	arm_flex_l	arm_add_l	arm_rot_l	elbow_flex_l	pro_sup_l	wrist_flex_l	wrist_dev_l
1.225000	-1.607231	-4.616145	106.231442	0.231763	0.855744	0.652331	-3.066400	-0.937114	-5.700362	1.540067	0.026879	15.998255	-4.207461	0.000000	2.256473	3.234463	3.918384	7.680659	0.134053	15.293923	2.031220	0.000000	-0.002502	-0.431673	-1.425996	-0.004646	-0.574125	-1.515121	-0.004110	-1.049569	-1.515121	-0.002859	-1.049569	-1.247746	-0.002323	-0.880267	-1.158622	-0.001429	-0.668661	-1.069497	-0.017868	-4.883168	-7.930961	0.000000	0.000000	19.344934	2.374000	3.517617	7.263549	-14.314510	51.825898	39.774622	84.133938	7.409830	13.243698	-0.428865	-18.078205	32.557331	56.680131	88.880615	-12.766690	4.359553
1.250000	-1.654518	-4.568067	106.039828	0.232566	0.855956	0.651855	-3.116613	-0.942416	-5.476083	1.515540	0.026451	16.013435	-4.239750	0.000000	2.286919	3.221435	3.660201	7.908074	0.138022	15.272015	1.990855	0.000000	-0.005998	-0.441993	-1.415087	-0.011139	-0.587850	-1.503530	-0.009854	-1.074661	-1.503530	-0.006855	-1.074661	-1.238201	-0.005570	-0.901311	-1.149758	-0.003427	-0.684647	-1.061315	-0.042842	-4.999910	-7.870289	0.000000	0.000000	19.088598	2.614296	3.585147	7.283805	-14.301182	52.554213	39.523483	85.256655	6.917652	12.232680	-0.705669	-18.351752	32.812250	56.309944	88.880855	-13.020166	3.395235
1.275000	-1.683739	-4.495800	105.857730	0.233298	0.856232	0.651341	-3.191872	-0.925377	-5.210500	1.475179	0.025747	16.014001	-4.320645	0.000000	2.290031	3.182286	3.395654	8.121686	0.141750	15.282537	1.992138	0.000000	-0.010521	-0.448004	-1.408133	-0.019538	-0.595846	-1.496141	-0.017285	-1.089277	-1.496141	-0.012024	-1.089277	-1.232116	-0.009770	-0.913570	-1.144108	-0.006012	-0.693959	-1.056099	-0.075149	-5.067913	-7.831611	0.000000	0.000000	18.829823	2.805601	3.741482	7.375498	-14.288641	53.347632	39.330631	86.039880	6.371275	11.431532	-1.024774	-18.608579	33.025854	55.954978	88.882442	-13.231969	2.454270
1.300000	-1.699784	-4.392179	105.698742	0.233941	0.856567	0.650749	-3.308933	-0.885130	-4.932996	1.419372	0.024773	16.001422	-4.450279	0.000000	2.259174	3.121073	3.127442	8.333643	0.145450	15.323553	2.048678	0.000000	-0.016461	-0.450433	-1.402802	-0.030570	-0.599075	-1.490477	-0.027044	-1.095182	-1.490477	-0.018813	-1.095182	-1.227452	-0.015286	-0.918522	-1.139777	-0.009406	-0.697720	-1.052102	-0.117580	-5.095383	-7.801965	0.000000	0.000000	18.557255	2.914359	3.924771	7.490971	-14.247962	54.048584	39.122793	86.707853	5.858486	10.747144	-1.341166	-18.857994	33.264722	55.567351	88.885218	-13.374808	1.599182
1.325000	-1.716954	-4.256552	105.533499	0.234547	0.856942	0.650042	-3.471950	-0.838375	-4.619103	1.355490	0.023658	15.972171	-4.633340	0.000000	2.180368	3.049758	2.831272	8.536937	0.148998	15.380992	2.151068	0.000000	-0.024327	-0.451125	-1.399958	-0.045178	-0.599996	-1.487456	-0.039967	-1.096864	-1.487456	-0.027804	-1.096864	-1.224964	-0.022590	-0.919933	-1.137466	-0.013901	-0.698792	-1.049969	-0.173768	-5.103211	-7.786148	0.000000	0.000000	18.281932	2.981481	4.185982	7.680482	-14.188359	54.792827	38.891271	87.074805	5.275178	10.268540	-1.698370	-19.076767	33.373111	55.150379	88.892846	-13.348935	0.945956
1.350000	-1.722557	-4.098366	105.420819	0.235002	0.857315	0.649233	-3.680502	-0.770065	-4.338234	1.276695	0.022283	15.920648	-4.861871	0.000000	2.065159	2.960899	2.576457	8.725821	0.152294	15.460567	2.306187	0.000000	-0.032866	-0.449107	-1.402138	-0.061036	-0.597313	-1.489771	-0.053996	-1.091960	-1.489771	-0.037563	-1.091960	-1.226871	-0.030520	-0.915820	-1.139237	-0.018780	-0.695668	-1.051603	-0.234761	-5.080394	-7.798270	0.000000	0.000000	18.016288	2.987314	4.457055	7.902525	-14.115862	55.517708	38.591262	86.986857	4.723955	9.934399	-2.057558	-19.254376	33.398083	54.664350	88.901955	-13.082543	0.515533
1.375000	-1.739826	-3.937034	105.349964	0.235377	0.857669	0.648368	-3.911503	-0.709863	-4.114567	1.196445	0.020882	15.848160	-5.099204	0.000000	1.942124	2.886959	2.404905	8.929401	0.155847	15.524454	2.434868	0.000000	-0.041353	-0.449292	-1.406825	-0.076796	-0.597559	-1.494752	-0.067939	-1.092410	-1.494752	-0.047262	-1.092410	-1.230972	-0.038400	-0.916197	-1.143045	-0.023629	-0.695954	-1.055119	-0.295380	-5.082485	-7.824340	0.000000	0.000000	17.749909	2.989258	4.648332	8.169786	-14.015810	56.354843	38.201802	86.902830	4.130114	9.509330	-2.387006	-19.424451	33.425297	54.098323	88.908538	-12.784029	0.231986
1.400000	-1.756671	-3.768357	105.331593	0.235644	0.858000	0.647508	-4.163494	-0.643124	-3.993821	1.114997	0.019460	15.741230	-5.311884	0.000000	1.818620	2.822073	2.359128	9.157883	0.159835	15.556807	2.453952	0.000000	-0.050548	-0.450046	-1.412259	-0.093873	-0.598561	-1.500525	-0.083046	-1.094242	-1.500525	-0.057772	-1.094242	-1.235726	-0.046939	-0.917734	-1.147460	-0.028883	-0.697121	-1.059194	-0.361061	-5.091009	-7.854560	0.000000	0.000000	17.456052	2.993246	4.745867	8.486101	-13.886791	57.315095	37.688826	86.896236	3.631968	9.060790	-2.619936	-19.568097	33.539787	53.376918	88.913754	-12.499920	-0.025915
1.425000	-1.777635	-3.603594	105.384719	0.235749	0.858275	0.646678	-4.424694	-0.578353	-3.976172	1.038815	0.018131	15.630452	-5.517243	0.000000	1.700020	2.776841	2.466309	9.398911	0.164042	15.559664	2.368242	0.000000	-0.060307	-0.451579	-1.422876	-0.111995	-0.600600	-1.511805	-0.099078	-1.097968	-1.511805	-0.068924	-1.097968	-1.245016	-0.056001	-0.920859	-1.156087	-0.034459	-0.699495	-1.067157	-0.430764	-5.108347	-7.913608	0.000000	0.000000	17.193389	2.994149	4.788285	8.803359	-13.735282	58.316975	37.055210	87.200283	3.123918	8.363323	-2.769831	-19.670009	33.708018	52.524693	88.920531	-12.363839	-0.317994
1.450000	-1.783561	-3.443874	105.500939	0.235643	0.858478	0.645940	-4.676598	-0.502104	-4.103864	0.978214	0.017073	15.530383	-5.645925	0.000000	1.584179	2.738318	2.764496	9.626572	0.168015	15.517953	2.129119	0.000000	-0.070817	-0.450731	-1.434608	-0.131515	-0.599472	-1.524271	-0.116346	-1.095906	-1.524271	-0.080937	-1.095906	-1.255282	-0.065761	-0.919130	-1.165619	-0.040465	-0.698182	-1.075956	-0.505841	-5.098755	-7.978857	0.000000	0.000000	16.972788	2.944153	4.724696	9.093293	-13.606827	59.280475	36.378414	87.475134	2.577715	7.677411	-2.792520	-19.714064	34.014355	51.530866	88.927251	-12.441428	-0.614353
1.475000	-1.788157	-3.298881	105.678484	0.235342	0.858604	0.645290	-4.918982	-0.429264	-4.327093	0.923002	0.016109	15.459562	-5.727748	0.000000	1.482798	2.718144	3.175003	9.849635	0.171909	15.448110	1.810822	0.000000	-0.080718	-0.449368	-1.454717	-0.149900	-0.597659	-1.545636	-0.132611	-1.092593	-1.545636	-0.092252	-1.092593	-1.272877	-0.074954	-0.916351	-1.181957	-0.046122	-0.696071	-1.091037	-0.576557	-5.083338	-8.090697	0.000000	0.000000	16.749667	2.931448	4.662124	9.335165	-13.461523	60.062102	35.604830	87.715494	2.096593	6.920430	-2.775766	-19.701591	34.255032	50.445869	88.941464	-12.705651	-0.984354
1.500000	-1.775795	-3.173158	105.887197	0.234850	0.858641	0.644770	-5.120204	-0.353620	-4.651135	0.902174	0.015746	15.422994	-5.731753	0.000000	1.397761	2.709741	3.747928	10.049255	0.175393	15.320945	1.301977	0.000000	-0.089532	-0.444779	-1.475762	-0.166270	-0.591556	-1.567997	-0.147092	-1.081435	-1.567997	-0.102326	-1.081435	-1.291291	-0.083139	-0.906993	-1.199056	-0.051158	-0.688962	-1.106821	-0.639517	-5.031425	-8.207743	0.000000	0.000000	16.542356	2.901891	4.584324	9.530313	-13.331229	60.740934	34.766294	87.793075	1.601586	6.175043	-2.660686	-19.632172	34.635850	49.232372	88.950907	-13.273115	-1.385199
1.525000	-1.752124	-3.064782	106.130429	0.234145	0.858586	0.644335	-5.291506	-0.280045	-5.092589	0.904971	0.015795	15.443966	-5.625620	0.000000	1.311731	2.713699	4.430407	10.200032	0.178024	15.133983	0.669953	0.000000	-0.097614	-0.437681	-1.500555	-0.181280	-0.582115	-1.594339	-0.160371	-1.064177	-1.594339	-0.111563	-1.064177	-1.312985	-0.090645	-0.892519	-1.219201	-0.055777	-0.677968	-1.125416	-0.697249	-4.951133	-8.345635	0.000000	0.000000	16.387051	2.850654	4.470481	9.658152	-13.219431	61.233509	33.895213	87.805374	1.155628	5.521756	-2.508688	-19.490991	34.961184	47.920149	88.958544	-14.049656	-1.797000
1.550000	-1.708816	-2.973517	106.369555	0.233293	0.858459	0.644015	-5.407034	-0.205069	-5.595243	0.960238	0.016759	15.517264	-5.449267	0.000000	1.238211	2.720925	5.186198	10.319710	0.180113	14.875758	-0.081647	0.000000	-0.104370	-0.426552	-1.518627	-0.193826	-0.567314	-1.613541	-0.171470	-1.037118	-1.613541	-0.119285	-1.037118	-1.328799	-0.096918	-0.869825	-1.233884	-0.059637	-0.660729	-1.138970	-0.745505	-4.825240	-8.446147	0.000000	0.000000	16.259796	2.765154	4.350010	9.735588	-13.134990	61.668768	32.964122	87.521844	0.679541	4.923036	-2.248042	-19.295704	35.494714	46.494414	88.961510	-15.065784	-2.121217
1.575000	-1.655550	-2.895794	106.631987	0.232265	0.858288	0.643761	-5.497766	-0.131599	-6.219776	1.032552	0.018021	15.600180	-5.163993	0.000000	1.154279	2.733416	6.001794	10.376445	0.181103	14.558781	-0.892088	0.000000	-0.110422	-0.413178	-1.538117	-0.205064	-0.549527	-1.634250	-0.181412	-1.004602	-1.634250	-0.126201	-1.004602	-1.345853	-0.102538	-0.842553	-1.249720	-0.063095	-0.640013	-1.153588	-0.788732	-4.673955	-8.554548	0.000000	0.000000	16.171005	2.654513	4.207914	9.774905	-13.088298	62.091167	32.020589	87.106653	0.137050	4.393844	-1.930094	-19.061923	36.188920	45.000788	88.970207	-16.348569	-2.332631
1.600000	-1.579465	-2.855207	106.903997	0.231119	0.858050	0.643630	-5.501683	-0.061046	-6.987352	1.183947	0.020664	15.718230	-4.732841	0.000000	1.115126	2.744710	6.839408	10.415457	0.181784	14.208045	-1.736283	0.000000	-0.112856	-0.397290	-1.552099	-0.209585	-0.528395	-1.649105	-0.185411	-0.965970	-1.649105	-0.128983	-0.965970	-1.358086	-0.104798	-0.810153	-1.261080	-0.064486	-0.615402	-1.164074	-0.806118	-4.494220	-8.632308	0.000000	0.000000	16.142295	2.532473	4.018839	9.747642	-13.080923	62.395262	31.088580	86.731905	-0.450344	3.910718	-1.542212	-18.802267	37.077188	43.446152	88.991397	-17.712477	-2.399872
